<mxfile host="app.diagrams.net" modified="2022-10-10T14:49:27.356Z" agent="5.0 (Macintosh; Intel Mac OS X 10_15_7) AppleWebKit/537.36 (KHTML, like Gecko) Chrome/105.0.0.0 Safari/537.36" etag="2kiEXl1u6P6jkxTPNkaf" version="20.4.0" type="github">
  <diagram name="Page-1" id="7e0a89b8-554c-2b80-1dc8-d5c74ca68de4">
    <mxGraphModel dx="2466" dy="786" grid="1" gridSize="10" guides="1" tooltips="1" connect="1" arrows="1" fold="1" page="1" pageScale="1" pageWidth="1100" pageHeight="850" background="none" math="0" shadow="0">
      <root>
        <mxCell id="0" />
        <mxCell id="1" parent="0" />
        <mxCell id="S8Q3d4afGY6rw8NLsrze-18" value="" style="rounded=0;whiteSpace=wrap;html=1;fontSize=16;fillColor=#dae8fc;glass=0;strokeColor=#6c8ebf;" vertex="1" parent="1">
          <mxGeometry x="-175" y="35" width="510" height="395" as="geometry" />
        </mxCell>
        <mxCell id="S8Q3d4afGY6rw8NLsrze-19" value="" style="endArrow=none;dashed=1;html=1;dashPattern=1 3;strokeWidth=2;rounded=0;fontSize=16;exitX=1;exitY=0.5;exitDx=0;exitDy=0;" edge="1" parent="1" source="S8Q3d4afGY6rw8NLsrze-18">
          <mxGeometry width="50" height="50" relative="1" as="geometry">
            <mxPoint x="430" y="340" as="sourcePoint" />
            <mxPoint x="490" y="233" as="targetPoint" />
          </mxGeometry>
        </mxCell>
        <mxCell id="S8Q3d4afGY6rw8NLsrze-25" value="2.4GHz" style="ellipse;shape=cloud;whiteSpace=wrap;html=1;rounded=0;glass=0;fontSize=16;fillColor=none;" vertex="1" parent="1">
          <mxGeometry x="340" y="140" width="120" height="80" as="geometry" />
        </mxCell>
        <mxCell id="S8Q3d4afGY6rw8NLsrze-17" value="" style="rounded=0;whiteSpace=wrap;html=1;fontSize=16;fillColor=#ffe6cc;strokeColor=#d79b00;" vertex="1" parent="1">
          <mxGeometry x="480" y="40" width="590" height="395" as="geometry" />
        </mxCell>
        <mxCell id="S8Q3d4afGY6rw8NLsrze-14" value="Arduino Pro Mini" style="rounded=1;whiteSpace=wrap;html=1;fontSize=16;" vertex="1" parent="1">
          <mxGeometry x="140" y="260" width="130" height="30" as="geometry" />
        </mxCell>
        <mxCell id="S8Q3d4afGY6rw8NLsrze-13" value="Wireless module" style="rounded=1;whiteSpace=wrap;html=1;fontSize=16;" vertex="1" parent="1">
          <mxGeometry x="160" y="200" width="130" height="30" as="geometry" />
        </mxCell>
        <mxCell id="S8Q3d4afGY6rw8NLsrze-24" value="Joysticks" style="rounded=1;whiteSpace=wrap;html=1;fontSize=16;" vertex="1" parent="1">
          <mxGeometry x="140" y="140" width="130" height="30" as="geometry" />
        </mxCell>
        <mxCell id="S8Q3d4afGY6rw8NLsrze-12" value="Controller" style="ellipse;whiteSpace=wrap;html=1;aspect=fixed;fontSize=16;" vertex="1" parent="1">
          <mxGeometry x="10" y="150" width="140" height="140" as="geometry" />
        </mxCell>
        <mxCell id="S8Q3d4afGY6rw8NLsrze-21" value="Batteries" style="rounded=1;whiteSpace=wrap;html=1;fontSize=16;" vertex="1" parent="1">
          <mxGeometry x="-120" y="250" width="130" height="30" as="geometry" />
        </mxCell>
        <mxCell id="S8Q3d4afGY6rw8NLsrze-20" value="Gyro module" style="rounded=1;whiteSpace=wrap;html=1;fontSize=16;" vertex="1" parent="1">
          <mxGeometry x="-130" y="190" width="130" height="30" as="geometry" />
        </mxCell>
        <mxCell id="S8Q3d4afGY6rw8NLsrze-15" value="OLED Display&lt;br&gt;" style="rounded=1;whiteSpace=wrap;html=1;fontSize=16;" vertex="1" parent="1">
          <mxGeometry x="-110" y="140" width="130" height="30" as="geometry" />
        </mxCell>
        <mxCell id="S8Q3d4afGY6rw8NLsrze-6" value="Spinning weapon" style="rounded=1;whiteSpace=wrap;html=1;fontSize=16;" vertex="1" parent="1">
          <mxGeometry x="720" y="365" width="150" height="40" as="geometry" />
        </mxCell>
        <mxCell id="S8Q3d4afGY6rw8NLsrze-7" value="Motor for the weapon" style="rounded=1;whiteSpace=wrap;html=1;fontSize=16;" vertex="1" parent="1">
          <mxGeometry x="720" y="310" width="170" height="40" as="geometry" />
        </mxCell>
        <mxCell id="S8Q3d4afGY6rw8NLsrze-1" value="Chasis" style="whiteSpace=wrap;html=1;aspect=fixed;fontSize=16;" vertex="1" parent="1">
          <mxGeometry x="720" y="160" width="140" height="140" as="geometry" />
        </mxCell>
        <mxCell id="S8Q3d4afGY6rw8NLsrze-5" value="4 motors for wheels" style="rounded=1;whiteSpace=wrap;html=1;fontSize=16;" vertex="1" parent="1">
          <mxGeometry x="870" y="210" width="190" height="40" as="geometry" />
        </mxCell>
        <mxCell id="S8Q3d4afGY6rw8NLsrze-22" value="Batteries" style="rounded=1;whiteSpace=wrap;html=1;fontSize=16;" vertex="1" parent="1">
          <mxGeometry x="870" y="265" width="130" height="30" as="geometry" />
        </mxCell>
        <mxCell id="S8Q3d4afGY6rw8NLsrze-4" value="4 wheels" style="rounded=1;whiteSpace=wrap;html=1;fontSize=16;" vertex="1" parent="1">
          <mxGeometry x="870" y="160" width="100" height="40" as="geometry" />
        </mxCell>
        <mxCell id="S8Q3d4afGY6rw8NLsrze-10" value="Armour" style="rounded=1;whiteSpace=wrap;html=1;fontSize=16;" vertex="1" parent="1">
          <mxGeometry x="725" y="110" width="130" height="40" as="geometry" />
        </mxCell>
        <mxCell id="S8Q3d4afGY6rw8NLsrze-11" value="Antenna" style="rounded=1;whiteSpace=wrap;html=1;fontSize=16;" vertex="1" parent="1">
          <mxGeometry x="580" y="260" width="130" height="40" as="geometry" />
        </mxCell>
        <mxCell id="S8Q3d4afGY6rw8NLsrze-9" value="Wireless module" style="rounded=1;whiteSpace=wrap;html=1;fontSize=16;" vertex="1" parent="1">
          <mxGeometry x="580" y="210" width="130" height="40" as="geometry" />
        </mxCell>
        <mxCell id="S8Q3d4afGY6rw8NLsrze-8" value="Arduino Uno" style="rounded=1;whiteSpace=wrap;html=1;fontSize=16;" vertex="1" parent="1">
          <mxGeometry x="580" y="160" width="130" height="40" as="geometry" />
        </mxCell>
      </root>
    </mxGraphModel>
  </diagram>
</mxfile>
